<svg width="384" height="279" viewBox="0 0 384 279" fill="none" xmlns="http://www.w3.org/2000/svg">
<rect width="384" height="279" fill="#8E9AAF"/>
<rect y="201" width="384" height="49" fill="#CBC0D3"/>
<g filter="url(#filter0_d_66_189)">
<path d="M95.4 239.4C93.96 239.4 92.64 239.04 91.44 238.32C90.2667 237.573 89.32 236.6 88.6 235.4C87.9067 234.173 87.56 232.827 87.56 231.36V229.52C87.56 229.387 87.6267 229.32 87.76 229.32H92.24C92.3467 229.32 92.4 229.387 92.4 229.52V231.36C92.4 232.24 92.6933 233 93.28 233.64C93.8667 234.253 94.5733 234.56 95.4 234.56C96.2267 234.56 96.9333 234.24 97.52 233.6C98.1067 232.96 98.4 232.213 98.4 231.36C98.4 230.373 97.76 229.52 96.48 228.8C96.0533 228.56 95.3867 228.187 94.48 227.68C93.5733 227.173 92.72 226.693 91.92 226.24C90.4533 225.387 89.36 224.32 88.64 223.04C87.9467 221.733 87.6 220.267 87.6 218.64C87.6 217.147 87.96 215.813 88.68 214.64C89.4 213.44 90.3467 212.493 91.52 211.8C92.72 211.107 94.0133 210.76 95.4 210.76C96.8133 210.76 98.1067 211.12 99.28 211.84C100.48 212.533 101.427 213.48 102.12 214.68C102.84 215.853 103.2 217.173 103.2 218.64V221.92C103.2 222.027 103.147 222.08 103.04 222.08H98.56C98.4533 222.08 98.4 222.027 98.4 221.92L98.36 218.64C98.36 217.707 98.0667 216.947 97.48 216.36C96.8933 215.773 96.2 215.48 95.4 215.48C94.5733 215.48 93.8667 215.8 93.28 216.44C92.6933 217.053 92.4 217.787 92.4 218.64C92.4 219.52 92.5867 220.253 92.96 220.84C93.3333 221.427 94.0133 221.987 95 222.52C95.1333 222.6 95.3867 222.747 95.76 222.96C96.16 223.147 96.5867 223.373 97.04 223.64C97.4933 223.88 97.8933 224.093 98.24 224.28C98.6133 224.467 98.84 224.587 98.92 224.64C100.253 225.387 101.307 226.307 102.08 227.4C102.853 228.467 103.24 229.787 103.24 231.36C103.24 232.88 102.88 234.253 102.16 235.48C101.467 236.68 100.52 237.64 99.32 238.36C98.1467 239.053 96.84 239.4 95.4 239.4ZM108.222 239C108.089 239 108.022 238.933 108.022 238.8L108.102 211.32C108.102 211.213 108.155 211.16 108.262 211.16H115.942C118.395 211.16 120.329 211.907 121.742 213.4C123.182 214.893 123.902 216.92 123.902 219.48C123.902 221.373 123.529 223.013 122.782 224.4C122.035 225.787 121.062 226.853 119.862 227.6C118.662 228.347 117.355 228.72 115.942 228.72H112.902V238.8C112.902 238.933 112.835 239 112.702 239H108.222ZM112.902 223.88H115.942C116.795 223.88 117.529 223.48 118.142 222.68C118.782 221.853 119.102 220.787 119.102 219.48C119.102 218.44 118.822 217.587 118.262 216.92C117.702 216.253 116.929 215.92 115.942 215.92L112.902 215.96V223.88ZM125.263 238.8L130.223 211.32C130.25 211.213 130.317 211.16 130.423 211.16H136.223C136.33 211.16 136.397 211.213 136.423 211.32L141.183 238.8C141.21 238.933 141.157 239 141.023 239H136.583C136.477 239 136.41 238.933 136.383 238.8L135.943 235.88H130.503L130.063 238.8C130.037 238.933 129.97 239 129.863 239H125.423C125.317 239 125.263 238.933 125.263 238.8ZM131.303 231.6H135.143L133.503 220.36L133.263 218.88L133.103 220.36L131.303 231.6ZM152.194 239.4C150.728 239.4 149.394 239.04 148.194 238.32C147.021 237.573 146.088 236.587 145.394 235.36C144.701 234.133 144.354 232.76 144.354 231.24L144.394 218.76C144.394 217.293 144.728 215.96 145.394 214.76C146.088 213.533 147.021 212.56 148.194 211.84C149.394 211.093 150.728 210.72 152.194 210.72C153.661 210.72 154.981 211.08 156.154 211.8C157.328 212.52 158.261 213.493 158.954 214.72C159.648 215.92 159.994 217.267 159.994 218.76V220.6C159.994 220.707 159.941 220.76 159.834 220.76H155.354C155.248 220.76 155.194 220.707 155.194 220.6V218.76C155.194 217.88 154.901 217.12 154.314 216.48C153.754 215.84 153.048 215.52 152.194 215.52C151.234 215.52 150.501 215.853 149.994 216.52C149.488 217.16 149.234 217.907 149.234 218.76V231.24C149.234 232.227 149.514 233.027 150.074 233.64C150.661 234.253 151.368 234.56 152.194 234.56C153.048 234.56 153.754 234.227 154.314 233.56C154.901 232.867 155.194 232.093 155.194 231.24V229.4C155.194 229.293 155.248 229.24 155.354 229.24H159.874C159.981 229.24 160.034 229.293 160.034 229.4V231.24C160.034 232.76 159.674 234.133 158.954 235.36C158.261 236.587 157.328 237.573 156.154 238.32C154.981 239.04 153.661 239.4 152.194 239.4ZM165.119 239C165.013 239 164.959 238.933 164.959 238.8L164.999 211.32C164.999 211.213 165.053 211.16 165.159 211.16H177.999C178.106 211.16 178.159 211.227 178.159 211.36V215.84C178.159 215.947 178.106 216 177.999 216H169.799V222.24H177.999C178.106 222.24 178.159 222.293 178.159 222.4L178.199 226.92C178.199 227.027 178.146 227.08 178.039 227.08H169.799V234.08H178.039C178.146 234.08 178.199 234.147 178.199 234.28V238.84C178.199 238.947 178.146 239 178.039 239H165.119ZM199.054 239.4C197.587 239.4 196.254 239.04 195.054 238.32C193.88 237.573 192.947 236.587 192.254 235.36C191.56 234.133 191.214 232.76 191.214 231.24L191.254 218.76C191.254 217.293 191.587 215.96 192.254 214.76C192.947 213.533 193.88 212.56 195.054 211.84C196.254 211.093 197.587 210.72 199.054 210.72C200.52 210.72 201.84 211.08 203.014 211.8C204.187 212.52 205.12 213.493 205.814 214.72C206.507 215.92 206.854 217.267 206.854 218.76V220.6C206.854 220.707 206.8 220.76 206.694 220.76H202.214C202.107 220.76 202.054 220.707 202.054 220.6V218.76C202.054 217.88 201.76 217.12 201.174 216.48C200.614 215.84 199.907 215.52 199.054 215.52C198.094 215.52 197.36 215.853 196.854 216.52C196.347 217.16 196.094 217.907 196.094 218.76V231.24C196.094 232.227 196.374 233.027 196.934 233.64C197.52 234.253 198.227 234.56 199.054 234.56C199.907 234.56 200.614 234.227 201.174 233.56C201.76 232.867 202.054 232.093 202.054 231.24V229.4C202.054 229.293 202.107 229.24 202.214 229.24H206.734C206.84 229.24 206.894 229.293 206.894 229.4V231.24C206.894 232.76 206.534 234.133 205.814 235.36C205.12 236.587 204.187 237.573 203.014 238.32C201.84 239.04 200.52 239.4 199.054 239.4ZM211.979 239C211.872 239 211.819 238.933 211.819 238.8L211.899 211.32C211.899 211.213 211.952 211.16 212.059 211.16H220.139C221.579 211.16 222.899 211.52 224.099 212.24C225.325 212.933 226.299 213.88 227.019 215.08C227.739 216.253 228.099 217.587 228.099 219.08C228.099 220.067 227.952 220.96 227.659 221.76C227.365 222.533 227.019 223.2 226.619 223.76C226.219 224.293 225.859 224.693 225.539 224.96C226.979 226.56 227.699 228.44 227.699 230.6L227.739 238.8C227.739 238.933 227.672 239 227.539 239H223.019C222.912 239 222.859 238.96 222.859 238.88V230.6C222.859 229.64 222.512 228.813 221.819 228.12C221.152 227.4 220.325 227.04 219.339 227.04H216.699L216.659 238.8C216.659 238.933 216.605 239 216.499 239H211.979ZM216.699 222.24H220.139C220.965 222.24 221.699 221.933 222.339 221.32C222.979 220.707 223.299 219.96 223.299 219.08C223.299 218.227 222.979 217.493 222.339 216.88C221.725 216.267 220.992 215.96 220.139 215.96H216.699V222.24ZM233.276 239C233.169 239 233.116 238.933 233.116 238.8L233.156 211.32C233.156 211.213 233.209 211.16 233.316 211.16H246.156C246.262 211.16 246.316 211.227 246.316 211.36V215.84C246.316 215.947 246.262 216 246.156 216H237.956V222.24H246.156C246.262 222.24 246.316 222.293 246.316 222.4L246.356 226.92C246.356 227.027 246.302 227.08 246.196 227.08H237.956V234.08H246.196C246.302 234.08 246.356 234.147 246.356 234.28V238.84C246.356 238.947 246.302 239 246.196 239H233.276ZM250.162 238.8L255.122 211.32C255.149 211.213 255.215 211.16 255.322 211.16H261.122C261.229 211.16 261.295 211.213 261.322 211.32L266.082 238.8C266.109 238.933 266.055 239 265.922 239H261.482C261.375 239 261.309 238.933 261.282 238.8L260.842 235.88H255.402L254.962 238.8C254.935 238.933 254.869 239 254.762 239H250.322C250.215 239 250.162 238.933 250.162 238.8ZM256.202 231.6H260.042L258.402 220.36L258.162 218.88L258.002 220.36L256.202 231.6ZM270.752 239C270.646 239 270.592 238.933 270.592 238.8L270.672 211.32C270.672 211.213 270.726 211.16 270.832 211.16H275.712C275.819 211.16 275.912 211.213 275.992 211.32L279.632 216.6L283.272 211.32C283.352 211.213 283.446 211.16 283.552 211.16H288.472C288.579 211.16 288.632 211.213 288.632 211.32L288.712 238.8C288.712 238.933 288.659 239 288.552 239H284.032C283.926 239 283.872 238.933 283.872 238.8L283.832 218.4L279.632 224.48L275.472 218.4L275.432 238.8C275.432 238.933 275.379 239 275.272 239H270.752Z" fill="white"/>
</g>
<g filter="url(#filter1_d_66_189)">
<path d="M192.5 169C230.332 169 261 138.332 261 100.5C261 62.6685 230.332 32 192.5 32C154.668 32 124 62.6685 124 100.5C124 138.332 154.668 169 192.5 169Z" fill="#F2F2F2"/>
<path d="M254.927 101.357C254.928 109.544 253.316 117.651 250.183 125.215C247.05 132.779 242.458 139.652 236.669 145.441C230.88 151.23 224.007 155.823 216.443 158.955C208.879 162.088 200.772 163.7 192.584 163.7C185.287 163.695 178.047 162.419 171.188 159.928C160.464 156.021 151.017 149.247 143.876 140.343C136.734 131.439 132.173 120.747 130.688 109.43C129.203 98.113 130.85 86.6057 135.452 76.1605C140.054 65.7154 147.433 56.7329 156.786 50.191C166.139 43.649 177.107 39.7984 188.497 39.0583C199.887 38.3182 211.261 40.717 221.382 45.9935C231.503 51.2701 239.983 59.2221 245.897 68.9839C251.812 78.7457 254.935 89.9431 254.927 101.357Z" fill="white"/>
<path d="M171.719 108.197C182.346 108.197 190.961 99.5819 190.961 88.955C190.961 78.3282 182.346 69.7135 171.719 69.7135C161.092 69.7135 152.477 78.3282 152.477 88.955C152.477 99.5819 161.092 108.197 171.719 108.197Z" fill="#E4E4E4"/>
<path d="M252.495 84.0625C248.325 86.0688 243.571 86.505 239.106 85.2912C234.64 84.0774 230.761 81.2949 228.18 77.4536C225.6 73.6123 224.49 68.9697 225.054 64.3765C225.618 59.7833 227.819 55.5472 231.252 52.4448C241.456 60.5116 248.884 71.5664 252.495 84.0625Z" fill="#F2F2F2"/>
<path d="M213.365 129.065C217.191 129.065 220.292 125.963 220.292 122.138C220.292 118.312 217.191 115.211 213.365 115.211C209.54 115.211 206.438 118.312 206.438 122.138C206.438 125.963 209.54 129.065 213.365 129.065Z" fill="#E4E4E4"/>
<path d="M184.888 161.391C184.887 161.999 184.807 162.604 184.649 163.192C180.053 162.617 175.537 161.522 171.188 159.928C171.549 158.257 172.516 156.778 173.902 155.777C175.287 154.775 176.995 154.321 178.695 154.503C180.395 154.684 181.968 155.488 183.112 156.76C184.255 158.031 184.888 159.681 184.888 161.391Z" fill="#F2F2F2"/>
<path d="M144.096 98.2782C144.095 101.793 142.76 105.175 140.359 107.742C137.958 110.308 134.672 111.867 131.165 112.101C129.578 102.952 130.041 93.5653 132.52 84.6167C135.754 85.1559 138.692 86.8246 140.812 89.3261C142.931 91.8275 144.095 94.9996 144.096 98.2782Z" fill="#F2F2F2"/>
<path d="M213.154 99.1056C213.154 99.1056 212.015 102.273 210.237 106.823C209.662 108.302 209.018 109.924 208.324 111.632C207.357 114.011 206.291 116.555 205.176 119.099C204.49 120.665 203.785 122.228 203.072 123.756C199.24 131.946 195.16 139.04 192.486 139.14C186.479 139.363 173.612 103.431 172.208 99.461C172.126 99.2288 172.083 99.1056 172.083 99.1056H213.154Z" fill="#DDBEA9"/>
<path opacity="0.1" d="M210.237 106.823C209.662 108.302 209.018 109.924 208.324 111.632L192.412 99.1056H200.433L210.237 106.823Z" fill="black"/>
<path opacity="0.1" d="M205.176 119.099C204.49 120.665 203.785 122.228 203.072 123.756L172.208 99.461C172.126 99.2288 172.083 99.1056 172.083 99.1056H179.778L205.176 119.099Z" fill="black"/>
<path d="M193.331 67.2821C191.448 68.6154 188.471 68.1113 186.661 69.5234C185.424 70.4894 185.094 72.1411 185.431 73.5786C185.769 75.0161 186.667 76.2916 187.569 77.5187C188.193 78.3657 188.839 79.2193 189.715 79.8634C190.939 80.764 192.51 81.1832 194.05 81.5199C197.403 82.253 200.828 82.6968 204.276 82.8452C205.814 82.9113 207.555 82.8452 208.591 81.8272C209.195 81.2343 209.437 80.4219 209.614 79.6362C209.891 78.4071 210.044 77.0838 209.473 75.939C209.003 74.9979 208.099 74.2926 207.184 73.6664C204.312 71.7021 200.931 70.0759 199.178 67.2487C198.482 66.125 198.052 64.8228 196.996 63.9508C195.62 62.8144 192.558 62.3497 190.938 63.1089C191.188 63.6191 194.46 66.4828 193.331 67.2821Z" fill="#DEAAFF"/>
<path d="M177.509 80.5342C176.951 82.2648 176.437 84.096 176.907 85.8474C177.527 88.1566 179.791 89.886 182.276 90.7266C184.76 91.5672 187.469 91.6654 190.124 91.754L204.021 92.2181C205.768 92.2764 207.548 92.3404 209.19 92.8772C210.543 93.3196 212.151 94.0481 213.279 93.2469C213.79 92.8835 214.02 92.2952 214.202 91.734C214.792 89.9082 215.123 87.9032 214.328 86.1401C213.418 84.1198 211.173 82.7923 208.843 82.1577C206.512 81.5231 204.044 81.4613 201.622 81.2217C199.166 80.9785 196.737 80.5487 194.362 79.9369C192.377 79.4254 190.366 78.7504 188.897 77.451C188.103 76.7482 187.501 75.891 186.753 75.1492C182.464 70.8998 178.564 77.2639 177.509 80.5342Z" fill="#DEAAFF"/>
<path d="M174.455 88.485C173.104 89.0263 171.931 89.8705 171.051 90.9358C170.172 92.0012 169.615 93.2516 169.434 94.5659C169.254 95.8802 169.456 97.2139 170.021 98.4379C170.587 99.6618 171.496 100.734 172.661 101.552C174.777 103.037 177.547 103.553 180.23 103.726C182.85 103.895 185.481 103.779 188.105 103.662L211.318 102.635C212.678 102.574 214.218 102.434 215.049 101.469C215.669 100.748 215.705 99.7547 215.557 98.8554C215.025 95.6204 212.292 92.7564 208.803 91.7759C207.487 91.4061 206.102 91.2891 204.728 91.1743L194.778 90.3419C193.438 90.2298 192.09 90.1165 190.791 89.8008C186.856 88.8446 183.34 86.0526 179.288 86.466C176.54 86.7464 174.277 88.4667 172.28 90.1786" fill="#DEAAFF"/>
<path opacity="0.1" d="M187.452 74.4691C187.452 74.4691 190.7 79.7114 207.359 81.8281Z" fill="black"/>
<path opacity="0.1" d="M178.237 88.1995C178.237 88.1995 184.272 93.6572 209.18 93.6572Z" fill="black"/>
<path d="M192.221 71.8633C193.099 71.8633 193.811 71.6512 193.811 71.3896C193.811 71.1279 193.099 70.9158 192.221 70.9158C191.343 70.9158 190.631 71.1279 190.631 71.3896C190.631 71.6512 191.343 71.8633 192.221 71.8633Z" fill="#7D1AAB"/>
<path d="M197.521 74.9429C198.399 74.9429 199.111 74.7307 199.111 74.4691C199.111 74.2074 198.399 73.9953 197.521 73.9953C196.643 73.9953 195.931 74.2074 195.931 74.4691C195.931 74.7307 196.643 74.9429 197.521 74.9429Z" fill="#7D1AAB"/>
<path d="M203.615 78.2593C204.493 78.2593 205.205 78.0472 205.205 77.7855C205.205 77.5239 204.493 77.3118 203.615 77.3118C202.737 77.3118 202.025 77.5239 202.025 77.7855C202.025 78.0472 202.737 78.2593 203.615 78.2593Z" fill="#7D1AAB"/>
<path d="M182.417 79.6807C183.295 79.6807 184.007 79.4686 184.007 79.2069C184.007 78.9452 183.295 78.7331 182.417 78.7331C181.539 78.7331 180.827 78.9452 180.827 79.2069C180.827 79.4686 181.539 79.6807 182.417 79.6807Z" fill="#7D1AAB"/>
<path d="M195.931 84.1816C196.809 84.1816 197.521 83.9695 197.521 83.7078C197.521 83.4462 196.809 83.234 195.931 83.234C195.053 83.234 194.341 83.4462 194.341 83.7078C194.341 83.9695 195.053 84.1816 195.931 84.1816Z" fill="#7D1AAB"/>
<path d="M176.853 93.4203C177.731 93.4203 178.443 93.2082 178.443 92.9465C178.443 92.6848 177.731 92.4727 176.853 92.4727C175.975 92.4727 175.263 92.6848 175.263 92.9465C175.263 93.2082 175.975 93.4203 176.853 93.4203Z" fill="#7D1AAB"/>
<path d="M186.922 84.6554C187.8 84.6554 188.512 84.4433 188.512 84.1816C188.512 83.9199 187.8 83.7078 186.922 83.7078C186.044 83.7078 185.332 83.9199 185.332 84.1816C185.332 84.4433 186.044 84.6554 186.922 84.6554Z" fill="#7D1AAB"/>
<path d="M180.827 96.9736C181.705 96.9736 182.417 96.7615 182.417 96.4999C182.417 96.2382 181.705 96.0261 180.827 96.0261C179.949 96.0261 179.238 96.2382 179.238 96.4999C179.238 96.7615 179.949 96.9736 180.827 96.9736Z" fill="#7D1AAB"/>
<path d="M191.161 94.8416C192.039 94.8416 192.751 94.6295 192.751 94.3678C192.751 94.1062 192.039 93.8941 191.161 93.8941C190.283 93.8941 189.572 94.1062 189.572 94.3678C189.572 94.6295 190.283 94.8416 191.161 94.8416Z" fill="#7D1AAB"/>
<path d="M197.388 106.212C198.34 106.212 199.111 104.781 199.111 103.014C199.111 101.248 198.34 99.8163 197.388 99.8163C196.437 99.8163 195.666 101.248 195.666 103.014C195.666 104.781 196.437 106.212 197.388 106.212Z" fill="#DEAAFF"/>
<path d="M199.508 107.397C200.459 107.397 201.23 105.965 201.23 104.199C201.23 102.433 200.459 101.001 199.508 101.001C198.557 101.001 197.786 102.433 197.786 104.199C197.786 105.965 198.557 107.397 199.508 107.397Z" fill="#DEAAFF"/>
</g>
<defs>
<filter id="filter0_d_66_189" x="85.56" y="210.72" width="205.152" height="32.68" filterUnits="userSpaceOnUse" color-interpolation-filters="sRGB">
<feFlood flood-opacity="0" result="BackgroundImageFix"/>
<feColorMatrix in="SourceAlpha" type="matrix" values="0 0 0 0 0 0 0 0 0 0 0 0 0 0 0 0 0 0 127 0" result="hardAlpha"/>
<feOffset dy="2"/>
<feGaussianBlur stdDeviation="1"/>
<feComposite in2="hardAlpha" operator="out"/>
<feColorMatrix type="matrix" values="0 0 0 0 0 0 0 0 0 0 0 0 0 0 0 0 0 0 0.25 0"/>
<feBlend mode="normal" in2="BackgroundImageFix" result="effect1_dropShadow_66_189"/>
<feBlend mode="normal" in="SourceGraphic" in2="effect1_dropShadow_66_189" result="shape"/>
</filter>
<filter id="filter1_d_66_189" x="118" y="32" width="149" height="149" filterUnits="userSpaceOnUse" color-interpolation-filters="sRGB">
<feFlood flood-opacity="0" result="BackgroundImageFix"/>
<feColorMatrix in="SourceAlpha" type="matrix" values="0 0 0 0 0 0 0 0 0 0 0 0 0 0 0 0 0 0 127 0" result="hardAlpha"/>
<feOffset dy="6"/>
<feGaussianBlur stdDeviation="3"/>
<feComposite in2="hardAlpha" operator="out"/>
<feColorMatrix type="matrix" values="0 0 0 0 0 0 0 0 0 0 0 0 0 0 0 0 0 0 0.25 0"/>
<feBlend mode="normal" in2="BackgroundImageFix" result="effect1_dropShadow_66_189"/>
<feBlend mode="normal" in="SourceGraphic" in2="effect1_dropShadow_66_189" result="shape"/>
</filter>
</defs>
</svg>
